<svg width="32" height="32" viewBox="0 0 32 32" fill="none" xmlns="http://www.w3.org/2000/svg">
<path d="M16 0C24.84 0 32 7.3411 32 16.4047C31.9991 19.8419 30.947 23.1923 28.9917 25.9843C27.0364 28.7763 24.2763 30.8693 21.1 31.9687C20.3 32.1327 20 31.6201 20 31.1894C20 30.6358 20.02 28.8723 20.02 26.6781C20.02 25.1402 19.52 24.1559 18.94 23.6433C22.5 23.2332 26.24 21.8388 26.24 15.5435C26.24 13.7389 25.62 12.283 24.6 11.1347C24.76 10.7246 25.32 9.04309 24.44 6.78745C24.44 6.78745 23.1 6.33632 20.04 8.46893C18.76 8.09982 17.4 7.91527 16.04 7.91527C14.68 7.91527 13.32 8.09982 12.04 8.46893C8.98 6.35682 7.64 6.78745 7.64 6.78745C6.76 9.04309 7.32 10.7246 7.48 11.1347C6.46 12.283 5.84 13.7594 5.84 15.5435C5.84 21.8183 9.56 23.2332 13.12 23.6433C12.66 24.0534 12.24 24.7711 12.1 25.8374C11.18 26.268 8.88 26.9652 7.44 24.484C7.14 23.9919 6.24 22.782 4.98 22.8025C3.64 22.823 4.44 23.5818 5 23.8893C5.68 24.279 6.46 25.7349 6.64 26.2065C6.96 27.1293 8 28.8928 12.02 28.1341C12.02 29.508 12.04 30.7998 12.04 31.1894C12.04 31.6201 11.74 32.1122 10.94 31.9687C7.75328 30.8811 4.98147 28.7923 3.01778 25.9987C1.05409 23.205 -0.00176096 19.8483 2.20462e-06 16.4047C2.20462e-06 7.3411 7.16 0 16 0Z" fill="currentColor"/>
</svg>
