<svg width="32" height="32" viewBox="0 0 32 32" fill="none" xmlns="http://www.w3.org/2000/svg">
<path d="M29.6 0H2.4C1.76348 0 1.15303 0.252856 0.702944 0.702944C0.252856 1.15303 0 1.76348 0 2.4V29.6C0 30.2365 0.252856 30.847 0.702944 31.2971C1.15303 31.7471 1.76348 32 2.4 32H29.6C30.2365 32 30.847 31.7471 31.2971 31.2971C31.7471 30.847 32 30.2365 32 29.6V2.4C32 1.76348 31.7471 1.15303 31.2971 0.702944C30.847 0.252856 30.2365 0 29.6 0ZM9.6 27.2H4.8V12.8H9.6V27.2ZM7.2 10C6.64989 9.98428 6.11662 9.80679 5.6668 9.48972C5.21699 9.17265 4.87058 8.73006 4.67087 8.21724C4.47116 7.70442 4.427 7.14413 4.5439 6.60635C4.66081 6.06858 4.9336 5.57718 5.32818 5.19356C5.72277 4.80993 6.22165 4.55109 6.7625 4.44938C7.30336 4.34767 7.86219 4.40759 8.36918 4.62167C8.87617 4.83574 9.30883 5.19447 9.6131 5.65304C9.91738 6.1116 10.0798 6.64967 10.08 7.2C10.0674 7.95256 9.75734 8.66952 9.21768 9.19419C8.67802 9.71885 7.95262 10.0086 7.2 10ZM27.2 27.2H22.4V19.616C22.4 17.344 21.44 16.528 20.192 16.528C19.8261 16.5524 19.4686 16.6488 19.1401 16.8117C18.8115 16.9746 18.5184 17.2008 18.2776 17.4774C18.0367 17.7539 17.8529 18.0753 17.7366 18.4231C17.6203 18.7709 17.5739 19.1382 17.6 19.504C17.5921 19.5785 17.5921 19.6535 17.6 19.728V27.2H12.8V12.8H17.44V14.88C17.908 14.168 18.5511 13.5881 19.3075 13.1959C20.0639 12.8037 20.9084 12.6123 21.76 12.64C24.24 12.64 27.136 14.016 27.136 18.496L27.2 27.2Z" fill="currentColor"/>
</svg>
