<svg width="32" height="32" viewBox="0 0 32 32" fill="none" xmlns="http://www.w3.org/2000/svg">
<rect width="32" height="32" fill="black"/>
<path d="M10.4979 21V17.4121L7 11H8.69428L11.2812 16.0799L13.85 11H15.5443L12.01 17.3943V21H10.4979Z" fill="white"/>
<path d="M16.6926 21V11H20.573C20.9738 11 21.405 11.0296 21.8665 11.0888C22.328 11.1362 22.7592 11.2487 23.16 11.4263C23.5608 11.5921 23.8887 11.8526 24.1438 12.2078C24.3988 12.5631 24.5263 13.0426 24.5263 13.6465C24.5263 14.0255 24.4474 14.3807 24.2895 14.7123C24.1438 15.032 23.8705 15.2925 23.4697 15.4938C23.0689 15.6951 22.4981 15.8076 21.7572 15.8313V15.9023C22.6195 15.9142 23.2814 16.0326 23.743 16.2575C24.2166 16.4825 24.5445 16.7786 24.7267 17.1456C24.9089 17.5009 25 17.8976 25 18.3357C25 18.9633 24.8603 19.4547 24.581 19.8099C24.3016 20.1652 23.9434 20.4316 23.5061 20.6092C23.0689 20.775 22.6013 20.8816 22.1033 20.929C21.6175 20.9763 21.156 21 20.7188 21H16.6926ZM18.1865 15.2629H20.3908C20.8888 15.2629 21.3321 15.2392 21.7208 15.1918C22.1215 15.1326 22.4373 14.9964 22.6681 14.7833C22.8989 14.5702 23.0142 14.2386 23.0142 13.7886C23.0142 13.3031 22.8928 12.9538 22.6499 12.7407C22.407 12.5157 22.0851 12.3736 21.6843 12.3144C21.2835 12.2552 20.8584 12.2256 20.4091 12.2256H18.1865V15.2629ZM18.1865 19.7922H20.5912C21.1135 19.7922 21.5872 19.7626 22.0122 19.7034C22.4373 19.6323 22.7774 19.4843 23.0325 19.2593C23.2996 19.0225 23.4332 18.6554 23.4332 18.1581C23.4332 17.6489 23.2936 17.27 23.0142 17.0213C22.747 16.7726 22.3827 16.6128 21.9212 16.5417C21.4718 16.4589 20.9799 16.4174 20.4455 16.4174H18.1865V19.7922Z" fill="white"/>
</svg>
